<?xml version="1.0" encoding="UTF-8" standalone="no"?>
<!DOCTYPE svg PUBLIC "-//W3C//DTD SVG 1.1//EN"
 "http://www.w3.org/Graphics/SVG/1.1/DTD/svg11.dtd">
<!-- Generated by graphviz version 2.40.1 (20161225.0304)
 -->
<!-- Title: Tree Pages: 1 -->
<svg width="897pt" height="671pt"
 viewBox="0.00 0.00 896.50 671.00" xmlns="http://www.w3.org/2000/svg" xmlns:xlink="http://www.w3.org/1999/xlink">
<g id="graph0" class="graph" transform="scale(1 1) rotate(0) translate(4 667)">
<title>Tree</title>
<polygon fill="#ffffff" stroke="transparent" points="-4,4 -4,-667 892.5,-667 892.5,4 -4,4"/>
<!-- 0 -->
<g id="node1" class="node">
<title>0</title>
<path fill="#ffffff" stroke="#000000" d="M535.5,-663C535.5,-663 406.5,-663 406.5,-663 400.5,-663 394.5,-657 394.5,-651 394.5,-651 394.5,-592 394.5,-592 394.5,-586 400.5,-580 406.5,-580 406.5,-580 535.5,-580 535.5,-580 541.5,-580 547.5,-586 547.5,-592 547.5,-592 547.5,-651 547.5,-651 547.5,-657 541.5,-663 535.5,-663"/>
<text text-anchor="start" x="402.5" y="-647.8" font-family="Helvetica,sans-Serif" font-size="14.00" fill="#000000">petal width (cm) ≤ 0.8</text>
<text text-anchor="start" x="433" y="-632.8" font-family="Helvetica,sans-Serif" font-size="14.00" fill="#000000">gini = 0.667</text>
<text text-anchor="start" x="423" y="-617.8" font-family="Helvetica,sans-Serif" font-size="14.00" fill="#000000">samples = 150</text>
<text text-anchor="start" x="409" y="-602.8" font-family="Helvetica,sans-Serif" font-size="14.00" fill="#000000">value = [50, 50, 50]</text>
<text text-anchor="start" x="424" y="-587.8" font-family="Helvetica,sans-Serif" font-size="14.00" fill="#000000">class = setosa</text>
</g>
<!-- 1 -->
<g id="node2" class="node">
<title>1</title>
<path fill="#e58139" stroke="#000000" d="M440.5,-536.5C440.5,-536.5 341.5,-536.5 341.5,-536.5 335.5,-536.5 329.5,-530.5 329.5,-524.5 329.5,-524.5 329.5,-480.5 329.5,-480.5 329.5,-474.5 335.5,-468.5 341.5,-468.5 341.5,-468.5 440.5,-468.5 440.5,-468.5 446.5,-468.5 452.5,-474.5 452.5,-480.5 452.5,-480.5 452.5,-524.5 452.5,-524.5 452.5,-530.5 446.5,-536.5 440.5,-536.5"/>
<text text-anchor="start" x="361.5" y="-521.3" font-family="Helvetica,sans-Serif" font-size="14.00" fill="#000000">gini = 0.0</text>
<text text-anchor="start" x="347" y="-506.3" font-family="Helvetica,sans-Serif" font-size="14.00" fill="#000000">samples = 50</text>
<text text-anchor="start" x="337.5" y="-491.3" font-family="Helvetica,sans-Serif" font-size="14.00" fill="#000000">value = [50, 0, 0]</text>
<text text-anchor="start" x="344" y="-476.3" font-family="Helvetica,sans-Serif" font-size="14.00" fill="#000000">class = setosa</text>
</g>
<!-- 0&#45;&gt;1 -->
<g id="edge1" class="edge">
<title>0&#45;&gt;1</title>
<path fill="none" stroke="#000000" d="M443.0199,-579.8796C435.4797,-568.6636 427.3113,-556.5131 419.7309,-545.2372"/>
<polygon fill="#000000" stroke="#000000" points="422.5527,-543.1612 414.0689,-536.8149 416.7434,-547.0667 422.5527,-543.1612"/>
<text text-anchor="middle" x="409.2608" y="-557.6482" font-family="Helvetica,sans-Serif" font-size="14.00" fill="#000000">True</text>
</g>
<!-- 2 -->
<g id="node3" class="node">
<title>2</title>
<path fill="#ffffff" stroke="#000000" d="M619.5,-544C619.5,-544 482.5,-544 482.5,-544 476.5,-544 470.5,-538 470.5,-532 470.5,-532 470.5,-473 470.5,-473 470.5,-467 476.5,-461 482.5,-461 482.5,-461 619.5,-461 619.5,-461 625.5,-461 631.5,-467 631.5,-473 631.5,-473 631.5,-532 631.5,-532 631.5,-538 625.5,-544 619.5,-544"/>
<text text-anchor="start" x="478.5" y="-528.8" font-family="Helvetica,sans-Serif" font-size="14.00" fill="#000000">petal width (cm) ≤ 1.75</text>
<text text-anchor="start" x="521.5" y="-513.8" font-family="Helvetica,sans-Serif" font-size="14.00" fill="#000000">gini = 0.5</text>
<text text-anchor="start" x="503" y="-498.8" font-family="Helvetica,sans-Serif" font-size="14.00" fill="#000000">samples = 100</text>
<text text-anchor="start" x="493.5" y="-483.8" font-family="Helvetica,sans-Serif" font-size="14.00" fill="#000000">value = [0, 50, 50]</text>
<text text-anchor="start" x="495" y="-468.8" font-family="Helvetica,sans-Serif" font-size="14.00" fill="#000000">class = versicolor</text>
</g>
<!-- 0&#45;&gt;2 -->
<g id="edge2" class="edge">
<title>0&#45;&gt;2</title>
<path fill="none" stroke="#000000" d="M498.9801,-579.8796C504.8531,-571.1434 511.1073,-561.8404 517.1679,-552.8253"/>
<polygon fill="#000000" stroke="#000000" points="520.2259,-554.5498 522.9005,-544.2981 514.4166,-550.6444 520.2259,-554.5498"/>
<text text-anchor="middle" x="527.7085" y="-565.1314" font-family="Helvetica,sans-Serif" font-size="14.00" fill="#000000">False</text>
</g>
<!-- 3 -->
<g id="node4" class="node">
<title>3</title>
<path fill="#4de88e" stroke="#000000" d="M505.5,-425C505.5,-425 362.5,-425 362.5,-425 356.5,-425 350.5,-419 350.5,-413 350.5,-413 350.5,-354 350.5,-354 350.5,-348 356.5,-342 362.5,-342 362.5,-342 505.5,-342 505.5,-342 511.5,-342 517.5,-348 517.5,-354 517.5,-354 517.5,-413 517.5,-413 517.5,-419 511.5,-425 505.5,-425"/>
<text text-anchor="start" x="358.5" y="-409.8" font-family="Helvetica,sans-Serif" font-size="14.00" fill="#000000">petal length (cm) ≤ 4.95</text>
<text text-anchor="start" x="396" y="-394.8" font-family="Helvetica,sans-Serif" font-size="14.00" fill="#000000">gini = 0.168</text>
<text text-anchor="start" x="390" y="-379.8" font-family="Helvetica,sans-Serif" font-size="14.00" fill="#000000">samples = 54</text>
<text text-anchor="start" x="380.5" y="-364.8" font-family="Helvetica,sans-Serif" font-size="14.00" fill="#000000">value = [0, 49, 5]</text>
<text text-anchor="start" x="378" y="-349.8" font-family="Helvetica,sans-Serif" font-size="14.00" fill="#000000">class = versicolor</text>
</g>
<!-- 2&#45;&gt;3 -->
<g id="edge3" class="edge">
<title>2&#45;&gt;3</title>
<path fill="none" stroke="#000000" d="M510.0791,-460.8796C501.047,-451.6931 491.3987,-441.8798 482.1112,-432.4336"/>
<polygon fill="#000000" stroke="#000000" points="484.6023,-429.975 475.0956,-425.2981 479.6107,-434.8827 484.6023,-429.975"/>
</g>
<!-- 12 -->
<g id="node13" class="node">
<title>12</title>
<path fill="#843de6" stroke="#000000" d="M740.5,-425C740.5,-425 597.5,-425 597.5,-425 591.5,-425 585.5,-419 585.5,-413 585.5,-413 585.5,-354 585.5,-354 585.5,-348 591.5,-342 597.5,-342 597.5,-342 740.5,-342 740.5,-342 746.5,-342 752.5,-348 752.5,-354 752.5,-354 752.5,-413 752.5,-413 752.5,-419 746.5,-425 740.5,-425"/>
<text text-anchor="start" x="593.5" y="-409.8" font-family="Helvetica,sans-Serif" font-size="14.00" fill="#000000">petal length (cm) ≤ 4.85</text>
<text text-anchor="start" x="631" y="-394.8" font-family="Helvetica,sans-Serif" font-size="14.00" fill="#000000">gini = 0.043</text>
<text text-anchor="start" x="625" y="-379.8" font-family="Helvetica,sans-Serif" font-size="14.00" fill="#000000">samples = 46</text>
<text text-anchor="start" x="615.5" y="-364.8" font-family="Helvetica,sans-Serif" font-size="14.00" fill="#000000">value = [0, 1, 45]</text>
<text text-anchor="start" x="617.5" y="-349.8" font-family="Helvetica,sans-Serif" font-size="14.00" fill="#000000">class = virginica</text>
</g>
<!-- 2&#45;&gt;12 -->
<g id="edge12" class="edge">
<title>2&#45;&gt;12</title>
<path fill="none" stroke="#000000" d="M592.2707,-460.8796C601.3799,-451.6931 611.1108,-441.8798 620.4776,-432.4336"/>
<polygon fill="#000000" stroke="#000000" points="622.9973,-434.8634 627.5532,-425.2981 618.0267,-429.9345 622.9973,-434.8634"/>
</g>
<!-- 4 -->
<g id="node5" class="node">
<title>4</title>
<path fill="#3de684" stroke="#000000" d="M274.5,-306C274.5,-306 137.5,-306 137.5,-306 131.5,-306 125.5,-300 125.5,-294 125.5,-294 125.5,-235 125.5,-235 125.5,-229 131.5,-223 137.5,-223 137.5,-223 274.5,-223 274.5,-223 280.5,-223 286.5,-229 286.5,-235 286.5,-235 286.5,-294 286.5,-294 286.5,-300 280.5,-306 274.5,-306"/>
<text text-anchor="start" x="133.5" y="-290.8" font-family="Helvetica,sans-Serif" font-size="14.00" fill="#000000">petal width (cm) ≤ 1.65</text>
<text text-anchor="start" x="168" y="-275.8" font-family="Helvetica,sans-Serif" font-size="14.00" fill="#000000">gini = 0.041</text>
<text text-anchor="start" x="162" y="-260.8" font-family="Helvetica,sans-Serif" font-size="14.00" fill="#000000">samples = 48</text>
<text text-anchor="start" x="152.5" y="-245.8" font-family="Helvetica,sans-Serif" font-size="14.00" fill="#000000">value = [0, 47, 1]</text>
<text text-anchor="start" x="150" y="-230.8" font-family="Helvetica,sans-Serif" font-size="14.00" fill="#000000">class = versicolor</text>
</g>
<!-- 3&#45;&gt;4 -->
<g id="edge4" class="edge">
<title>3&#45;&gt;4</title>
<path fill="none" stroke="#000000" d="M354.2567,-341.8796C334.9914,-331.8244 314.2871,-321.0183 294.6413,-310.7645"/>
<polygon fill="#000000" stroke="#000000" points="296.1829,-307.6212 285.6983,-306.0969 292.944,-313.8268 296.1829,-307.6212"/>
</g>
<!-- 7 -->
<g id="node8" class="node">
<title>7</title>
<path fill="#c09cf2" stroke="#000000" d="M502.5,-306C502.5,-306 365.5,-306 365.5,-306 359.5,-306 353.5,-300 353.5,-294 353.5,-294 353.5,-235 353.5,-235 353.5,-229 359.5,-223 365.5,-223 365.5,-223 502.5,-223 502.5,-223 508.5,-223 514.5,-229 514.5,-235 514.5,-235 514.5,-294 514.5,-294 514.5,-300 508.5,-306 502.5,-306"/>
<text text-anchor="start" x="361.5" y="-290.8" font-family="Helvetica,sans-Serif" font-size="14.00" fill="#000000">petal width (cm) ≤ 1.55</text>
<text text-anchor="start" x="396" y="-275.8" font-family="Helvetica,sans-Serif" font-size="14.00" fill="#000000">gini = 0.444</text>
<text text-anchor="start" x="394.5" y="-260.8" font-family="Helvetica,sans-Serif" font-size="14.00" fill="#000000">samples = 6</text>
<text text-anchor="start" x="384.5" y="-245.8" font-family="Helvetica,sans-Serif" font-size="14.00" fill="#000000">value = [0, 2, 4]</text>
<text text-anchor="start" x="382.5" y="-230.8" font-family="Helvetica,sans-Serif" font-size="14.00" fill="#000000">class = virginica</text>
</g>
<!-- 3&#45;&gt;7 -->
<g id="edge7" class="edge">
<title>3&#45;&gt;7</title>
<path fill="none" stroke="#000000" d="M434,-341.8796C434,-333.6838 434,-324.9891 434,-316.5013"/>
<polygon fill="#000000" stroke="#000000" points="437.5001,-316.298 434,-306.2981 430.5001,-316.2981 437.5001,-316.298"/>
</g>
<!-- 5 -->
<g id="node6" class="node">
<title>5</title>
<path fill="#39e581" stroke="#000000" d="M116,-179.5C116,-179.5 12,-179.5 12,-179.5 6,-179.5 0,-173.5 0,-167.5 0,-167.5 0,-123.5 0,-123.5 0,-117.5 6,-111.5 12,-111.5 12,-111.5 116,-111.5 116,-111.5 122,-111.5 128,-117.5 128,-123.5 128,-123.5 128,-167.5 128,-167.5 128,-173.5 122,-179.5 116,-179.5"/>
<text text-anchor="start" x="34.5" y="-164.3" font-family="Helvetica,sans-Serif" font-size="14.00" fill="#000000">gini = 0.0</text>
<text text-anchor="start" x="20" y="-149.3" font-family="Helvetica,sans-Serif" font-size="14.00" fill="#000000">samples = 47</text>
<text text-anchor="start" x="10.5" y="-134.3" font-family="Helvetica,sans-Serif" font-size="14.00" fill="#000000">value = [0, 47, 0]</text>
<text text-anchor="start" x="8" y="-119.3" font-family="Helvetica,sans-Serif" font-size="14.00" fill="#000000">class = versicolor</text>
</g>
<!-- 4&#45;&gt;5 -->
<g id="edge5" class="edge">
<title>4&#45;&gt;5</title>
<path fill="none" stroke="#000000" d="M156.3353,-222.8796C142.1642,-211.0038 126.743,-198.0804 112.6342,-186.2568"/>
<polygon fill="#000000" stroke="#000000" points="114.8598,-183.5554 104.9472,-179.8149 110.3637,-188.9206 114.8598,-183.5554"/>
</g>
<!-- 6 -->
<g id="node7" class="node">
<title>6</title>
<path fill="#8139e5" stroke="#000000" d="M253.5,-179.5C253.5,-179.5 158.5,-179.5 158.5,-179.5 152.5,-179.5 146.5,-173.5 146.5,-167.5 146.5,-167.5 146.5,-123.5 146.5,-123.5 146.5,-117.5 152.5,-111.5 158.5,-111.5 158.5,-111.5 253.5,-111.5 253.5,-111.5 259.5,-111.5 265.5,-117.5 265.5,-123.5 265.5,-123.5 265.5,-167.5 265.5,-167.5 265.5,-173.5 259.5,-179.5 253.5,-179.5"/>
<text text-anchor="start" x="176.5" y="-164.3" font-family="Helvetica,sans-Serif" font-size="14.00" fill="#000000">gini = 0.0</text>
<text text-anchor="start" x="166.5" y="-149.3" font-family="Helvetica,sans-Serif" font-size="14.00" fill="#000000">samples = 1</text>
<text text-anchor="start" x="156.5" y="-134.3" font-family="Helvetica,sans-Serif" font-size="14.00" fill="#000000">value = [0, 0, 1]</text>
<text text-anchor="start" x="154.5" y="-119.3" font-family="Helvetica,sans-Serif" font-size="14.00" fill="#000000">class = virginica</text>
</g>
<!-- 4&#45;&gt;6 -->
<g id="edge6" class="edge">
<title>4&#45;&gt;6</title>
<path fill="none" stroke="#000000" d="M206,-222.8796C206,-212.2134 206,-200.7021 206,-189.9015"/>
<polygon fill="#000000" stroke="#000000" points="209.5001,-189.8149 206,-179.8149 202.5001,-189.815 209.5001,-189.8149"/>
</g>
<!-- 8 -->
<g id="node9" class="node">
<title>8</title>
<path fill="#8139e5" stroke="#000000" d="M390.5,-179.5C390.5,-179.5 295.5,-179.5 295.5,-179.5 289.5,-179.5 283.5,-173.5 283.5,-167.5 283.5,-167.5 283.5,-123.5 283.5,-123.5 283.5,-117.5 289.5,-111.5 295.5,-111.5 295.5,-111.5 390.5,-111.5 390.5,-111.5 396.5,-111.5 402.5,-117.5 402.5,-123.5 402.5,-123.5 402.5,-167.5 402.5,-167.5 402.5,-173.5 396.5,-179.5 390.5,-179.5"/>
<text text-anchor="start" x="313.5" y="-164.3" font-family="Helvetica,sans-Serif" font-size="14.00" fill="#000000">gini = 0.0</text>
<text text-anchor="start" x="303.5" y="-149.3" font-family="Helvetica,sans-Serif" font-size="14.00" fill="#000000">samples = 3</text>
<text text-anchor="start" x="293.5" y="-134.3" font-family="Helvetica,sans-Serif" font-size="14.00" fill="#000000">value = [0, 0, 3]</text>
<text text-anchor="start" x="291.5" y="-119.3" font-family="Helvetica,sans-Serif" font-size="14.00" fill="#000000">class = virginica</text>
</g>
<!-- 7&#45;&gt;8 -->
<g id="edge8" class="edge">
<title>7&#45;&gt;8</title>
<path fill="none" stroke="#000000" d="M402.1726,-222.8796C393.5116,-211.5536 384.1219,-199.2748 375.428,-187.9058"/>
<polygon fill="#000000" stroke="#000000" points="378.0956,-185.6324 369.2408,-179.8149 372.5351,-189.8846 378.0956,-185.6324"/>
</g>
<!-- 9 -->
<g id="node10" class="node">
<title>9</title>
<path fill="#9cf2c0" stroke="#000000" d="M579.5,-187C579.5,-187 432.5,-187 432.5,-187 426.5,-187 420.5,-181 420.5,-175 420.5,-175 420.5,-116 420.5,-116 420.5,-110 426.5,-104 432.5,-104 432.5,-104 579.5,-104 579.5,-104 585.5,-104 591.5,-110 591.5,-116 591.5,-116 591.5,-175 591.5,-175 591.5,-181 585.5,-187 579.5,-187"/>
<text text-anchor="start" x="428.5" y="-171.8" font-family="Helvetica,sans-Serif" font-size="14.00" fill="#000000">sepal length (cm) ≤ 6.95</text>
<text text-anchor="start" x="468" y="-156.8" font-family="Helvetica,sans-Serif" font-size="14.00" fill="#000000">gini = 0.444</text>
<text text-anchor="start" x="466.5" y="-141.8" font-family="Helvetica,sans-Serif" font-size="14.00" fill="#000000">samples = 3</text>
<text text-anchor="start" x="456.5" y="-126.8" font-family="Helvetica,sans-Serif" font-size="14.00" fill="#000000">value = [0, 2, 1]</text>
<text text-anchor="start" x="450" y="-111.8" font-family="Helvetica,sans-Serif" font-size="14.00" fill="#000000">class = versicolor</text>
</g>
<!-- 7&#45;&gt;9 -->
<g id="edge9" class="edge">
<title>7&#45;&gt;9</title>
<path fill="none" stroke="#000000" d="M459.1821,-222.8796C464.4133,-214.2335 469.9805,-205.0322 475.3823,-196.1042"/>
<polygon fill="#000000" stroke="#000000" points="478.5283,-197.6658 480.7104,-187.2981 472.5392,-194.0421 478.5283,-197.6658"/>
</g>
<!-- 10 -->
<g id="node11" class="node">
<title>10</title>
<path fill="#39e581" stroke="#000000" d="M487,-68C487,-68 383,-68 383,-68 377,-68 371,-62 371,-56 371,-56 371,-12 371,-12 371,-6 377,0 383,0 383,0 487,0 487,0 493,0 499,-6 499,-12 499,-12 499,-56 499,-56 499,-62 493,-68 487,-68"/>
<text text-anchor="start" x="405.5" y="-52.8" font-family="Helvetica,sans-Serif" font-size="14.00" fill="#000000">gini = 0.0</text>
<text text-anchor="start" x="395.5" y="-37.8" font-family="Helvetica,sans-Serif" font-size="14.00" fill="#000000">samples = 2</text>
<text text-anchor="start" x="385.5" y="-22.8" font-family="Helvetica,sans-Serif" font-size="14.00" fill="#000000">value = [0, 2, 0]</text>
<text text-anchor="start" x="379" y="-7.8" font-family="Helvetica,sans-Serif" font-size="14.00" fill="#000000">class = versicolor</text>
</g>
<!-- 9&#45;&gt;10 -->
<g id="edge10" class="edge">
<title>9&#45;&gt;10</title>
<path fill="none" stroke="#000000" d="M479.5622,-103.9815C473.944,-95.1585 468.0012,-85.8258 462.3497,-76.9506"/>
<polygon fill="#000000" stroke="#000000" points="465.1416,-74.8188 456.8181,-68.2637 459.2371,-78.5787 465.1416,-74.8188"/>
</g>
<!-- 11 -->
<g id="node12" class="node">
<title>11</title>
<path fill="#8139e5" stroke="#000000" d="M624.5,-68C624.5,-68 529.5,-68 529.5,-68 523.5,-68 517.5,-62 517.5,-56 517.5,-56 517.5,-12 517.5,-12 517.5,-6 523.5,0 529.5,0 529.5,0 624.5,0 624.5,0 630.5,0 636.5,-6 636.5,-12 636.5,-12 636.5,-56 636.5,-56 636.5,-62 630.5,-68 624.5,-68"/>
<text text-anchor="start" x="547.5" y="-52.8" font-family="Helvetica,sans-Serif" font-size="14.00" fill="#000000">gini = 0.0</text>
<text text-anchor="start" x="537.5" y="-37.8" font-family="Helvetica,sans-Serif" font-size="14.00" fill="#000000">samples = 1</text>
<text text-anchor="start" x="527.5" y="-22.8" font-family="Helvetica,sans-Serif" font-size="14.00" fill="#000000">value = [0, 0, 1]</text>
<text text-anchor="start" x="525.5" y="-7.8" font-family="Helvetica,sans-Serif" font-size="14.00" fill="#000000">class = virginica</text>
</g>
<!-- 9&#45;&gt;11 -->
<g id="edge11" class="edge">
<title>9&#45;&gt;11</title>
<path fill="none" stroke="#000000" d="M532.4378,-103.9815C538.056,-95.1585 543.9988,-85.8258 549.6503,-76.9506"/>
<polygon fill="#000000" stroke="#000000" points="552.7629,-78.5787 555.1819,-68.2637 546.8584,-74.8188 552.7629,-78.5787"/>
</g>
<!-- 13 -->
<g id="node14" class="node">
<title>13</title>
<path fill="#c09cf2" stroke="#000000" d="M735.5,-306C735.5,-306 602.5,-306 602.5,-306 596.5,-306 590.5,-300 590.5,-294 590.5,-294 590.5,-235 590.5,-235 590.5,-229 596.5,-223 602.5,-223 602.5,-223 735.5,-223 735.5,-223 741.5,-223 747.5,-229 747.5,-235 747.5,-235 747.5,-294 747.5,-294 747.5,-300 741.5,-306 735.5,-306"/>
<text text-anchor="start" x="598.5" y="-290.8" font-family="Helvetica,sans-Serif" font-size="14.00" fill="#000000">sepal width (cm) ≤ 3.1</text>
<text text-anchor="start" x="631" y="-275.8" font-family="Helvetica,sans-Serif" font-size="14.00" fill="#000000">gini = 0.444</text>
<text text-anchor="start" x="629.5" y="-260.8" font-family="Helvetica,sans-Serif" font-size="14.00" fill="#000000">samples = 3</text>
<text text-anchor="start" x="619.5" y="-245.8" font-family="Helvetica,sans-Serif" font-size="14.00" fill="#000000">value = [0, 1, 2]</text>
<text text-anchor="start" x="617.5" y="-230.8" font-family="Helvetica,sans-Serif" font-size="14.00" fill="#000000">class = virginica</text>
</g>
<!-- 12&#45;&gt;13 -->
<g id="edge13" class="edge">
<title>12&#45;&gt;13</title>
<path fill="none" stroke="#000000" d="M669,-341.8796C669,-333.6838 669,-324.9891 669,-316.5013"/>
<polygon fill="#000000" stroke="#000000" points="672.5001,-316.298 669,-306.2981 665.5001,-316.2981 672.5001,-316.298"/>
</g>
<!-- 16 -->
<g id="node17" class="node">
<title>16</title>
<path fill="#8139e5" stroke="#000000" d="M876.5,-298.5C876.5,-298.5 777.5,-298.5 777.5,-298.5 771.5,-298.5 765.5,-292.5 765.5,-286.5 765.5,-286.5 765.5,-242.5 765.5,-242.5 765.5,-236.5 771.5,-230.5 777.5,-230.5 777.5,-230.5 876.5,-230.5 876.5,-230.5 882.5,-230.5 888.5,-236.5 888.5,-242.5 888.5,-242.5 888.5,-286.5 888.5,-286.5 888.5,-292.5 882.5,-298.5 876.5,-298.5"/>
<text text-anchor="start" x="797.5" y="-283.3" font-family="Helvetica,sans-Serif" font-size="14.00" fill="#000000">gini = 0.0</text>
<text text-anchor="start" x="783" y="-268.3" font-family="Helvetica,sans-Serif" font-size="14.00" fill="#000000">samples = 43</text>
<text text-anchor="start" x="773.5" y="-253.3" font-family="Helvetica,sans-Serif" font-size="14.00" fill="#000000">value = [0, 0, 43]</text>
<text text-anchor="start" x="775.5" y="-238.3" font-family="Helvetica,sans-Serif" font-size="14.00" fill="#000000">class = virginica</text>
</g>
<!-- 12&#45;&gt;16 -->
<g id="edge16" class="edge">
<title>12&#45;&gt;16</title>
<path fill="none" stroke="#000000" d="M724.2607,-341.8796C740.2503,-329.8368 757.6703,-316.7167 773.5474,-304.7586"/>
<polygon fill="#000000" stroke="#000000" points="775.8116,-307.435 781.6938,-298.623 771.6002,-301.8435 775.8116,-307.435"/>
</g>
<!-- 14 -->
<g id="node15" class="node">
<title>14</title>
<path fill="#8139e5" stroke="#000000" d="M716.5,-179.5C716.5,-179.5 621.5,-179.5 621.5,-179.5 615.5,-179.5 609.5,-173.5 609.5,-167.5 609.5,-167.5 609.5,-123.5 609.5,-123.5 609.5,-117.5 615.5,-111.5 621.5,-111.5 621.5,-111.5 716.5,-111.5 716.5,-111.5 722.5,-111.5 728.5,-117.5 728.5,-123.5 728.5,-123.5 728.5,-167.5 728.5,-167.5 728.5,-173.5 722.5,-179.5 716.5,-179.5"/>
<text text-anchor="start" x="639.5" y="-164.3" font-family="Helvetica,sans-Serif" font-size="14.00" fill="#000000">gini = 0.0</text>
<text text-anchor="start" x="629.5" y="-149.3" font-family="Helvetica,sans-Serif" font-size="14.00" fill="#000000">samples = 2</text>
<text text-anchor="start" x="619.5" y="-134.3" font-family="Helvetica,sans-Serif" font-size="14.00" fill="#000000">value = [0, 0, 2]</text>
<text text-anchor="start" x="617.5" y="-119.3" font-family="Helvetica,sans-Serif" font-size="14.00" fill="#000000">class = virginica</text>
</g>
<!-- 13&#45;&gt;14 -->
<g id="edge14" class="edge">
<title>13&#45;&gt;14</title>
<path fill="none" stroke="#000000" d="M669,-222.8796C669,-212.2134 669,-200.7021 669,-189.9015"/>
<polygon fill="#000000" stroke="#000000" points="672.5001,-189.8149 669,-179.8149 665.5001,-189.815 672.5001,-189.8149"/>
</g>
<!-- 15 -->
<g id="node16" class="node">
<title>15</title>
<path fill="#39e581" stroke="#000000" d="M863,-179.5C863,-179.5 759,-179.5 759,-179.5 753,-179.5 747,-173.5 747,-167.5 747,-167.5 747,-123.5 747,-123.5 747,-117.5 753,-111.5 759,-111.5 759,-111.5 863,-111.5 863,-111.5 869,-111.5 875,-117.5 875,-123.5 875,-123.5 875,-167.5 875,-167.5 875,-173.5 869,-179.5 863,-179.5"/>
<text text-anchor="start" x="781.5" y="-164.3" font-family="Helvetica,sans-Serif" font-size="14.00" fill="#000000">gini = 0.0</text>
<text text-anchor="start" x="771.5" y="-149.3" font-family="Helvetica,sans-Serif" font-size="14.00" fill="#000000">samples = 1</text>
<text text-anchor="start" x="761.5" y="-134.3" font-family="Helvetica,sans-Serif" font-size="14.00" fill="#000000">value = [0, 1, 0]</text>
<text text-anchor="start" x="755" y="-119.3" font-family="Helvetica,sans-Serif" font-size="14.00" fill="#000000">class = versicolor</text>
</g>
<!-- 13&#45;&gt;15 -->
<g id="edge15" class="edge">
<title>13&#45;&gt;15</title>
<path fill="none" stroke="#000000" d="M718.6647,-222.8796C732.8358,-211.0038 748.257,-198.0804 762.3658,-186.2568"/>
<polygon fill="#000000" stroke="#000000" points="764.6363,-188.9206 770.0528,-179.8149 760.1402,-183.5554 764.6363,-188.9206"/>
</g>
</g>
</svg>
